<svg xmlns="http://www.w3.org/2000/svg" stroke="currentColor" fill="currentColor" viewBox="0 0 200 200" className="w-6 h-6">
    <path d="M565 1450l-369-370 34-35c19-19 39-35 45-35 5 0 192 182 415 405l405 405H935l-370-370zM805 1370L356 921l34-36c19-19 39-35 45-35 5 0 228 218 495 485l485 485h-160l-450-450zM1052 1297c-287-287-522-529-522-538 0-16 50-69 66-69 5 0 263 254 574 565l565 565h-160l-523-523zM1093 1012C929 849 676 594 531 447L266 180h153l525 526c289 289 526 531 526 538 0 15-52 66-68 66-6 0-146-134-309-298zM1070 673L587 185l75-3 75-3 452 452 452 452-37 38c-21 22-41 39-44 39-4 0-224-219-490-487zM1310 585L905 180h160l370 370 369 370-34 35c-19 19-39 35-45 35-5 0-192-182-415-405z" transform="matrix(.1 0 0 -.1 0 200)"/>
</svg>
